<?xml version="1.0" encoding="UTF-8" standalone="no"?>
<!-- Created with Inkscape (http://www.inkscape.org/) -->

<svg
   xmlns:dc="http://purl.org/dc/elements/1.1/"
   xmlns:cc="http://creativecommons.org/ns#"
   xmlns:rdf="http://www.w3.org/1999/02/22-rdf-syntax-ns#"
   xmlns:svg="http://www.w3.org/2000/svg"
   xmlns="http://www.w3.org/2000/svg"
   xmlns:sodipodi="http://sodipodi.sourceforge.net/DTD/sodipodi-0.dtd"
   xmlns:inkscape="http://www.inkscape.org/namespaces/inkscape"
   width="175"
   height="75"
   viewBox="0 0 46.302082 19.843751"
   version="1.1"
   id="svg8"
   inkscape:version="0.92.3 (2405546, 2018-03-11)"
   sodipodi:docname="logo.svg">
  <defs
     id="defs2" />
  <sodipodi:namedview
     id="base"
     pagecolor="#ffffff"
     bordercolor="#666666"
     borderopacity="1.0"
     inkscape:pageopacity="0.0"
     inkscape:pageshadow="2"
     inkscape:zoom="23.767249"
     inkscape:cx="163.23724"
     inkscape:cy="24.465502"
     inkscape:document-units="px"
     inkscape:current-layer="text4522"
     showgrid="true"
     units="px"
     inkscape:window-width="1920"
     inkscape:window-height="1017"
     inkscape:window-x="-8"
     inkscape:window-y="-8"
     inkscape:window-maximized="1"
     objecttolerance="10000">
    <inkscape:grid
       type="xygrid"
       id="grid4518" />
  </sodipodi:namedview>
  <metadata
     id="metadata5">
    <rdf:RDF>
      <cc:Work
         rdf:about="">
        <dc:format>image/svg+xml</dc:format>
        <dc:type
           rdf:resource="http://purl.org/dc/dcmitype/StillImage" />
        <dc:title></dc:title>
      </cc:Work>
    </rdf:RDF>
  </metadata>
  <g
     inkscape:label="Layer 1"
     inkscape:groupmode="layer"
     id="layer1"
     transform="translate(0,-277.15623)">
    <g
       aria-label="LiveLoq!"
       style="font-style:normal;font-weight:normal;font-size:10.58333397px;line-height:1.25;font-family:sans-serif;letter-spacing:0px;word-spacing:0px;fill:#000000;fill-opacity:1;stroke:none;stroke-width:0.26458335"
       id="text4522">
      <path
         d="m 6.2118517,289.92271 v 1.70842 H 1.4138672 -1.1175871e-8 v -9.53051 H 2.1273465 v 7.82209 z"
         style="font-style:normal;font-variant:normal;font-weight:800;font-stretch:normal;font-size:13.40555573px;line-height:0;font-family:Heebo;-inkscape-font-specification:'Heebo Ultra-Bold';letter-spacing:-0.60589582px;stroke-width:0.26458335"
         id="path825" />
      <path
         d="m 7.6809366,281.67515 q 0.5105631,0 0.8247558,0.29456 0.3141928,0.28801 0.3141928,0.75275 0,0.4582 -0.3141928,0.75275 -0.3141927,0.28801 -0.8247558,0.28801 -0.5105632,0 -0.8247559,-0.28801 -0.307647,-0.29455 -0.307647,-0.75275 0,-0.46474 0.307647,-0.75275 0.3141927,-0.29456 0.8247559,-0.29456 z m -1.0145807,9.95598 v -7.08242 h 2.0487983 v 7.08242 z"
         style="font-style:normal;font-variant:normal;font-weight:800;font-stretch:normal;font-size:13.40555573px;line-height:0;font-family:Heebo;-inkscape-font-specification:'Heebo Ultra-Bold';letter-spacing:-0.60589582px;stroke-width:0.26458335"
         id="path827" />
      <path
         d="m 15.662975,284.54871 -2.349899,7.08242 h -1.2895 -0.72657 l -2.3564455,-7.08242 h 2.1469835 l 1.217497,4.60816 1.217497,-4.60816 z"
         style="font-style:normal;font-variant:normal;font-weight:800;font-stretch:normal;font-size:13.40555573px;line-height:0;font-family:Heebo;-inkscape-font-specification:'Heebo Ultra-Bold';letter-spacing:-0.60589582px;stroke-width:0.26458335"
         id="path829" />
      <path
         d="M 22.106778,288.75758 H 17.66226 q 0.117822,0.62839 0.543292,0.99494 0.425469,0.36002 1.086583,0.36002 0.510563,0 0.942578,-0.18328 0.432015,-0.18328 0.739662,-0.56948 l 0.962215,1.1455 q -0.373104,0.5302 -1.093129,0.89676 -0.720025,0.36001 -1.68224,0.36001 -1.093129,0 -1.904793,-0.4582 -0.811665,-0.46474 -1.24368,-1.25023 -0.432015,-0.78548 -0.432015,-1.72806 v -0.24873 q 0,-1.05386 0.399287,-1.87861 0.399287,-0.8313 1.15204,-1.30259 0.759299,-0.47784 1.806608,-0.47784 1.001489,0 1.714969,0.42547 0.713479,0.41893 1.080037,1.20441 0.373104,0.77893 0.373104,1.83933 z m -2.002979,-1.5186 q 0,-0.54984 -0.301101,-0.85748 -0.294556,-0.3142 -0.877121,-0.3142 -1.040764,0 -1.256771,1.33532 h 2.434993 z"
         style="font-style:normal;font-variant:normal;font-weight:800;font-stretch:normal;font-size:13.40555573px;line-height:0;font-family:Heebo;-inkscape-font-specification:'Heebo Ultra-Bold';letter-spacing:-0.60589582px;stroke-width:0.26458335"
         id="path831" />
      <path
         d="m 28.818953,289.92271 v 1.70842 h -4.797984 -1.413868 v -9.53051 h 2.127347 v 7.82209 z"
         style="font-style:normal;font-variant:normal;font-weight:800;font-stretch:normal;font-size:13.40555573px;line-height:0;font-family:Heebo;-inkscape-font-specification:'Heebo Ultra-Bold';letter-spacing:-0.60589582px;stroke-width:0.26458335"
         id="path833" />
      <path
         d="m 28.880718,288.02446 q 0,-1.04076 0.392741,-1.85897 0.399286,-0.81821 1.158585,-1.28295 0.765845,-0.46475 1.826246,-0.46475 1.066946,0 1.83279,0.46475 0.765845,0.46474 1.158586,1.28295 0.399287,0.81166 0.399287,1.85897 v 0.13746 q 0,1.04077 -0.399287,1.85898 -0.392741,0.81821 -1.158586,1.28295 -0.759299,0.4582 -1.819699,0.4582 -1.066946,0 -1.832791,-0.4582 -0.765845,-0.46474 -1.165131,-1.27641 -0.392741,-0.81821 -0.392741,-1.86552 z m 2.042253,0.13746 q 0,0.89676 0.314192,1.42696 0.320739,0.52366 1.034218,0.52366 0.700388,0 1.014581,-0.5302 0.320738,-0.5302 0.320738,-1.42042 v -0.13746 q 0,-0.87712 -0.320738,-1.41386 -0.314193,-0.5433 -1.027672,-0.5433 -0.700388,0 -1.021127,0.5433 -0.314192,0.53674 -0.314192,1.41386 z"
         style="font-style:normal;font-variant:normal;font-weight:800;font-stretch:normal;font-size:13.40555573px;line-height:0;font-family:Heebo;-inkscape-font-specification:'Heebo Ultra-Bold';letter-spacing:-0.60589582px;stroke-width:0.26458335"
         id="path835" />
      <path
         d="m 42.308764,284.54871 v 9.80543 h -2.048798 l -0.0433,-2.91041 c -0.529167,0.26458 -0.942917,0.31832 -1.619304,0.31832 -0.580384,0 -1.077856,-0.15492 -1.492416,-0.46475 -0.41456,-0.30983 -0.728753,-0.73748 -0.942578,-1.28295 -0.213825,-0.54547 -0.320738,-1.16513 -0.320738,-1.85897 v -0.13746 c 0,-0.72003 0.106913,-1.35059 0.320738,-1.8917 0.213825,-0.54547 0.528018,-0.96658 0.942578,-1.26332 0.41456,-0.29674 0.916396,-0.44511 1.505507,-0.44511 0.741844,0 1.077047,-0.11781 1.870796,0.41136 l 0.04709,-0.28044 z m -3.194293,5.56383 c 0.545474,0 0.927306,-0.20946 1.145495,-0.62839 v -2.8081 c -0.205098,-0.40583 -0.582566,-0.60875 -1.132403,-0.60875 -0.432015,0 -0.74839,0.17455 -0.949124,0.52366 -0.196371,0.3491 -0.294556,0.82475 -0.294556,1.42696 v 0.13746 c 0,0.59347 0.096,1.06913 0.28801,1.42696 0.196371,0.35347 0.510563,0.5302 0.942578,0.5302 z"
         style="font-style:normal;font-variant:normal;font-weight:800;font-stretch:normal;font-size:13.40555573px;line-height:0;font-family:Heebo;-inkscape-font-specification:'Heebo Ultra-Bold';letter-spacing:-0.60589582px;stroke-width:0.26458335"
         id="path837"
         inkscape:connector-curvature="0"
         sodipodi:nodetypes="ccccscssscsscccsccscsscs" />
      <path
         d="m 44.786566,288.63976 -0.248736,-6.53914 c 0.70592,-0.44647 1.49967,-0.44647 2.173167,0 l -0.248736,6.53914 c -0.424766,0.6873 -1.218516,0.6873 -1.675695,0 z m 0.831302,0.95567 c 0.68421,-0.004 1.213383,-0.79753 1.213377,-1.06212 1.1e-5,-0.16124 3e-6,-2.61324 0,-2.91042 0.264589,0 0.793756,0.26459 0.793756,0.52917 -2e-6,1.09777 -4e-6,2.20487 -6e-6,2.38125 0,1.05834 -1.580265,1.91849 -1.580265,2.11922 0,0.2051 0.521932,0.52662 0.521932,0.7912 -0.8399,0.21843 -0.966679,0.21843 -1.852083,0 -0.096,-0.16582 0.341427,-0.83909 0.341427,-1.04419 0,-0.20073 -1.135172,-0.54331 -1.399756,-1.60164 v -2.64584 c 0,-0.26458 0.529167,-0.52917 0.79375,-0.52917 l 10e-7,2.91042 c -10e-7,0.26459 0.529165,1.06565 1.167873,1.06212 z"
         style="font-style:normal;font-variant:normal;font-weight:800;font-stretch:normal;font-size:13.40555573px;line-height:0;font-family:Heebo;-inkscape-font-specification:'Heebo Ultra-Bold';letter-spacing:-0.60589582px;stroke-width:0.26458335"
         id="path839"
         inkscape:connector-curvature="0"
         sodipodi:nodetypes="ccccccccccsccsccccsc" />
    </g>
  </g>
</svg>
